<svg aria-hidden="true" style="position: absolute; width: 0; height: 0; overflow: hidden;" version="1.1" xmlns="http://www.w3.org/2000/svg" xmlns:xlink="http://www.w3.org/1999/xlink">
<defs>
<symbol id="icon-play" viewBox="0 0 31 32">
<path d="M10.353 6.666v18.667l14.235-9.334-14.235-9.334z"></path>
</symbol>
<symbol id="icon-close" viewBox="0 0 32 32">
<path d="M23.734 10.304l-1.504-1.504-5.963 5.962-5.962-5.962-1.504 1.504 5.962 5.962-5.962 5.963 1.504 1.504 5.962-5.963 5.963 5.963 1.504-1.504-5.963-5.963 5.963-5.962z"></path>
</symbol>
<symbol id="icon-logo" viewBox="0 0 86 32">
<path d="M17.059 7.102v-3.551c0-0.392-0.318-0.71-0.71-0.71h-0.71v-2.131c0-0.392-0.318-0.71-0.71-0.71-1.006 0-2.546-0.077-4.355 1.005-1.124-0.334-1.919-0.295-2.75-0.295-0.392 0-0.71 0.318-0.71 0.71v1.421h-0.71c-0.392 0-0.71 0.318-0.71 0.71v3.551c0 2.892 2.174 5.286 4.973 5.637v9.275c0 0.392 0.318 0.71 0.71 0.71s0.71-0.318 0.71-0.71v0-2.484h1.066c2.155 0 3.908-1.752 3.908-3.906v-1.065c0-0.392-0.318-0.71-0.71-0.71h-1.776c-0.001 0-0.003 0-0.004 0-0.947 0-1.814 0.338-2.489 0.9l0.006-0.005v-2.005c2.796-0.346 4.973-2.728 4.973-5.636zM15.638 7.102c-0.002 1.268-0.557 2.406-1.438 3.184l-0.005 0.004c0.014-0.114 0.022-0.23 0.022-0.348 0-1.798-0.672-3.442-1.779-4.694 0.895-0.617 2.003-0.986 3.196-0.986 0.001 0 0.003 0 0.004 0h-0v2.84zM14.217 1.421v1.564c-0.179 0.036-0.311 0.068-0.441 0.103l0.050-0.011c-0.45-0.503-0.964-0.937-1.531-1.293l-0.030-0.017c0.579-0.218 1.249-0.345 1.948-0.345 0.001 0 0.003 0 0.004 0h-0zM8.533 2.132c1.412 0 2.783 0.515 3.848 1.499-0.386 0.201-0.716 0.411-1.026 0.646l0.018-0.013c-0.799-0.607-1.755-1.053-2.794-1.271l-0.046-0.008v-0.853zM7.112 7.103v-2.841c3.134 0 5.684 2.548 5.684 5.681-0.001 0.784-0.637 1.42-1.422 1.42-0.013 0-0.025-0-0.038-0.001l0.002 0c-2.496-0.061-4.226-2.043-4.226-4.26zM14.573 15.269h1.066v0.355c-0.002 1.372-1.114 2.484-2.487 2.486h-1.066v-0.355c0.002-1.372 1.114-2.484 2.487-2.486h0z"></path>
<path d="M25.455 10.565h-2.995v1.883h3.538v1.465h-5.442v-7.9h5.453v1.471h-3.549v1.666h2.995v1.416zM29.866 8.639l1.292-2.626h2.176l-2.208 3.917 2.268 3.982h-2.197l-1.33-2.675-1.329 2.675h-2.192l2.263-3.982-2.203-3.917h2.17l1.291 2.626zM36.068 11.232v2.681h-1.904v-7.9h3.152c0.604 0 1.138 0.112 1.6 0.337 0.467 0.221 0.827 0.537 1.080 0.949 0.256 0.409 0.385 0.874 0.385 1.395 0 0.77-0.276 1.387-0.83 1.85-0.55 0.459-1.306 0.689-2.268 0.689h-1.215zM36.068 9.762h1.248c0.369 0 0.649-0.092 0.841-0.277 0.196-0.185 0.293-0.445 0.293-0.781 0-0.369-0.099-0.664-0.298-0.884s-0.47-0.333-0.814-0.337h-1.27v2.279zM43.452 12.448h3.315v1.465h-5.22v-7.9h1.905v6.435zM54.060 10.126c0 0.77-0.143 1.452-0.429 2.045s-0.692 1.051-1.221 1.373c-0.525 0.319-1.123 0.478-1.796 0.478s-1.269-0.154-1.79-0.461c-0.521-0.311-0.928-0.754-1.221-1.329-0.289-0.575-0.441-1.235-0.456-1.98v-0.445c0-0.774 0.141-1.456 0.423-2.045 0.286-0.594 0.693-1.051 1.221-1.373 0.532-0.322 1.136-0.483 1.812-0.483 0.669 0 1.266 0.159 1.791 0.478s0.931 0.772 1.221 1.362c0.293 0.586 0.441 1.259 0.445 2.018v0.364zM52.122 9.795c0-0.785-0.132-1.38-0.396-1.786-0.261-0.408-0.635-0.613-1.123-0.613-0.955 0-1.459 0.716-1.514 2.149l-0.006 0.581c0 0.774 0.128 1.369 0.385 1.785s0.638 0.624 1.145 0.624c0.481 0 0.852-0.204 1.113-0.613s0.392-0.996 0.396-1.763v-0.364zM58.123 11.124h-1.031v2.789h-1.905v-7.9h3.109c0.937 0 1.67 0.208 2.198 0.624s0.792 1.004 0.792 1.763c0 0.55-0.112 1.006-0.337 1.368-0.22 0.362-0.568 0.654-1.042 0.879l1.65 3.185v0.082h-2.040l-1.395-2.789zM57.092 9.654h1.204c0.362 0 0.633-0.094 0.814-0.282 0.185-0.192 0.277-0.458 0.277-0.798s-0.092-0.606-0.277-0.798c-0.185-0.195-0.456-0.293-0.814-0.293h-1.204v2.17zM67.482 10.565h-2.995v1.883h3.538v1.465h-5.442v-7.9h5.453v1.471h-3.548v1.666h2.995v1.416zM22.585 22.725h-1.899v-7.9h1.9v7.9zM30.653 22.725h-1.894l-2.8-4.916v4.916h-1.905v-7.9h1.905l2.794 4.916v-4.916h1.899v7.9zM32.004 22.725v-7.9h2.545c0.698 0 1.326 0.16 1.883 0.478 0.557 0.315 0.991 0.761 1.302 1.34 0.314 0.575 0.474 1.221 0.478 1.937v0.363c0 0.723-0.154 1.373-0.461 1.948-0.301 0.566-0.741 1.024-1.275 1.337l-0.016 0.009c-0.554 0.322-1.172 0.485-1.856 0.488h-2.599zM33.908 16.295v4.965h0.662c0.546 0 0.966-0.193 1.259-0.581 0.293-0.39 0.44-0.969 0.44-1.736v-0.342c0-0.763-0.147-1.338-0.44-1.725s-0.72-0.581-1.28-0.581h-0.64zM46.024 18.938c0 0.77-0.143 1.452-0.429 2.045s-0.693 1.051-1.221 1.373c-0.525 0.319-1.123 0.478-1.796 0.478s-1.27-0.154-1.79-0.461c-0.521-0.311-0.928-0.754-1.221-1.329-0.289-0.575-0.441-1.235-0.456-1.98v-0.445c0-0.774 0.141-1.456 0.423-2.045 0.286-0.594 0.692-1.051 1.221-1.373 0.531-0.322 1.136-0.483 1.812-0.483 0.669 0 1.266 0.16 1.79 0.478s0.932 0.772 1.221 1.362c0.293 0.586 0.441 1.259 0.445 2.018v0.364zM44.087 18.606c0-0.785-0.132-1.38-0.396-1.785-0.26-0.408-0.634-0.613-1.123-0.613-0.955 0-1.46 0.716-1.514 2.149l-0.005 0.581c0 0.774 0.128 1.369 0.385 1.785s0.639 0.624 1.145 0.624c0.481 0 0.852-0.204 1.112-0.613s0.393-0.997 0.397-1.763v-0.364zM53.751 22.725h-1.894l-2.8-4.916v4.916h-1.905v-7.9h1.905l2.794 4.916v-4.916h1.899v7.9zM60.001 19.377h-2.995v1.883h3.538v1.465h-5.442v-7.9h5.453v1.471h-3.548v1.666h2.995v1.416zM65.54 20.625c0-0.278-0.099-0.495-0.298-0.651-0.195-0.155-0.541-0.316-1.037-0.482s-0.901-0.328-1.215-0.483c-1.024-0.503-1.536-1.194-1.536-2.073 0-0.437 0.127-0.823 0.38-1.155 0.256-0.337 0.618-0.597 1.085-0.781 0.467-0.188 0.991-0.282 1.573-0.282 0.568 0 1.076 0.102 1.525 0.304 0.452 0.203 0.803 0.492 1.053 0.868 0.249 0.372 0.374 0.799 0.374 1.28h-1.899c0-0.322-0.099-0.571-0.298-0.749-0.195-0.177-0.461-0.266-0.798-0.266-0.34 0-0.609 0.076-0.808 0.228-0.196 0.148-0.293 0.339-0.293 0.57 0 0.203 0.109 0.387 0.326 0.553 0.217 0.163 0.599 0.333 1.145 0.51 0.546 0.173 0.995 0.362 1.346 0.564 0.854 0.492 1.28 1.17 1.28 2.035 0 0.691-0.261 1.234-0.781 1.628s-1.235 0.591-2.143 0.591c-0.64 0-1.221-0.114-1.742-0.342-0.517-0.232-0.908-0.546-1.172-0.944-0.26-0.402-0.391-0.863-0.391-1.383h1.91c0 0.423 0.109 0.736 0.326 0.939 0.221 0.199 0.577 0.298 1.069 0.298 0.315 0 0.563-0.067 0.743-0.201 0.185-0.137 0.276-0.329 0.276-0.575zM70.597 22.725h-1.899v-7.9h1.899v7.9zM76.652 21.249h-2.61l-0.455 1.476h-2.035l2.898-7.9h1.791l2.919 7.9h-2.046l-0.461-1.476zM74.497 19.779h1.698l-0.852-2.741-0.846 2.741z"></path>
<path d="M8.823 16.696h77.025v9.275h-77.025z"></path>
</symbol>
<symbol id="icon-Group-9-1" viewBox="0 0 32 32">
<path fill="#dd2242" style="fill: var(--color1, #dd2242)" d="M29.419 14.194c0 7.411-6.008 13.419-13.419 13.419s-13.419-6.008-13.419-13.419c0-7.411 6.008-13.419 13.419-13.419s13.419 6.008 13.419 13.419z"></path>
<path fill="#fff" style="fill: var(--color2, #fff)" d="M20.721 15.646c0.129 0.124 0.209 0.298 0.209 0.491 0 0.376-0.305 0.681-0.681 0.681-0.193 0-0.367-0.080-0.49-0.209l-3.723-3.722-3.777 3.777c-0.122 0.118-0.289 0.19-0.472 0.19-0.376 0-0.681-0.305-0.681-0.681 0-0.183 0.072-0.35 0.19-0.472l4.091-4.092c0.123-0.123 0.293-0.199 0.48-0.199 0.004 0 0.008 0 0.011 0h-0.001c0.079-0.035 0.171-0.055 0.268-0.055 0.188 0 0.358 0.076 0.482 0.2l4.092 4.092z"></path>
</symbol>
<symbol id="menu" viewBox="0 0 36 32">
<path fill="#fff" style="fill: var(--color2, #fff)" d="M6.553 24h24.013v-2.667h-24.013v2.667zM6.553 17.333h24.013v-2.667h-24.013v2.667zM6.553 8v2.667h24.013v-2.667h-24.013z"></path>
</symbol>
<symbol id="search" viewBox="0 0 33 32">
<path fill="#fff" style="fill: var(--color2, #fff)" d="M21.84 18.667h-1.053l-0.373-0.36c1.301-1.502 2.093-3.475 2.093-5.634 0-0.002 0-0.004 0-0.006v0c0-4.786-3.88-8.667-8.667-8.667s-8.667 3.88-8.667 8.667c0 4.786 3.88 8.667 8.667 8.667v0c2.147 0 4.12-0.787 5.64-2.093l0.36 0.373v1.053l6.667 6.653 1.987-1.987-6.653-6.667zM13.84 18.667c-3.32 0-6-2.68-6-6s2.68-6 6-6 6 2.68 6 6-2.68 6-6 6z"></path>
</symbol>
<symbol id="icon-facebook" viewBox="0 0 32 32">
<path fill="#fff" style="fill: var(--color2, #fff)" d="M17.943 25.333v-9h2.915l0.476-4h-3.391v-1.948c0-1.029 0.028-2.052 1.563-2.052h1.556v-2.86c0-0.043-1.336-0.14-2.687-0.14-2.823 0-4.589 1.657-4.589 4.7v2.3h-3.119v4h3.119v9h4.157z"></path>
</symbol>
<symbol id="icon-google" viewBox="0 0 32 32">
<path fill="#fff" style="fill: var(--color2, #fff)" d="M25.167 14.137h-8.969c0 0.933 0 2.797-0.005 3.731h5.197c-0.2 0.933-0.907 2.24-1.904 2.896 0 0 0 0.007-0.003 0.005-1.327 0.876-3.077 1.075-4.377 0.813-2.017-0.419-3.625-1.846-4.293-3.72l-0.013-0.040c0.004-0.003 0.007-0.028 0.009-0.031-0.409-1.164-0.409-2.723 0-3.655 0.528-1.715 2.189-3.28 4.229-3.707 1.64-0.348 3.493 0.028 4.853 1.303 0.181-0.177 2.507-2.448 2.681-2.632-4.653-4.213-12.101-2.732-14.889 2.709l-0.005 0.011c-0.637 1.213-1.012 2.649-1.012 4.174 0 1.531 0.378 2.975 1.045 4.242l-0.024-0.050-0.009 0.008c1.247 2.368 3.398 4.118 5.982 4.806l0.066 0.015c2.809 0.736 6.387 0.232 8.783-1.933l0.003 0.001c2.029-1.827 3.293-4.943 2.655-8.947z"></path>
</symbol>
<symbol id="icon-linkedin" viewBox="0 0 32 32">
<path fill="#fff" style="fill: var(--color2, #fff)" d="M26.667 25.333h-4.103v-7.471c0-2.049-0.868-3.193-2.427-3.193-1.695 0-2.701 1.192-2.701 3.193v7.471h-4.103v-13.877h4.103v1.56s1.287-2.349 4.187-2.349c2.904 0 5.044 1.843 5.044 5.656v9.011zM7.333 8c-1.105 0-2-0.895-2-2s0.895-2 2-2v0c1.105 0 2 0.895 2 2s-0.895 2-2 2v0zM5.333 25.333h4v-13.333h-4v13.333z"></path>
</symbol>
<symbol id="icon-logotype" viewBox="0 0 84 32">
<path fill="#fff" style="fill: var(--color2, #fff)" d="M18.545 7.728v-3.863c0-0.427-0.346-0.773-0.773-0.773h-0.773v-2.318c0-0.427-0.346-0.773-0.773-0.773-1.094 0-2.769-0.084-4.736 1.094-1.223-0.364-2.087-0.322-2.991-0.322-0.427 0-0.773 0.346-0.773 0.773v1.545h-0.773c-0.427 0-0.773 0.346-0.773 0.773v3.863c0 3.147 2.364 5.752 5.409 6.133v10.093c0 0.427 0.346 0.773 0.773 0.773s0.773-0.346 0.773-0.773v-2.704h1.159c2.343 0 4.25-1.906 4.25-4.25v-1.159c0-0.427-0.346-0.773-0.773-0.773h-1.932c-1.026 0-1.969 0.366-2.704 0.974v-2.182c3.041-0.377 5.409-2.969 5.409-6.133zM17 7.728c0 1.375-0.608 2.617-1.569 3.469 0.015-0.124 0.024-0.25 0.024-0.378 0-1.957-0.732-3.746-1.935-5.108 1.020-0.696 2.23-1.073 3.48-1.073v3.091zM15.454 1.547v1.701c-0.143 0.029-0.285 0.062-0.425 0.099-0.501-0.561-1.073-1.039-1.697-1.425 0.675-0.247 1.391-0.375 2.122-0.375zM9.273 2.319c1.535 0 3.026 0.561 4.185 1.632-0.383 0.197-0.75 0.428-1.097 0.689-0.898-0.675-1.948-1.16-3.088-1.392v-0.928zM7.728 7.728v-3.091c3.408 0 6.181 2.773 6.181 6.181 0 0.863-0.713 1.567-1.586 1.545-2.715-0.067-4.596-2.224-4.596-4.635zM15.841 16.614h1.159v0.386c0 1.491-1.213 2.704-2.704 2.704h-1.159v-0.386c0-1.491 1.213-2.704 2.704-2.704z"></path>
<path fill="#dd2242" style="fill: var(--color1, #dd2242)" d="M28.049 10.076h-3.131v1.968h3.698v1.532h-5.69v-8.259h5.701v1.537h-3.71v1.741h3.131v1.481zM32.661 8.062l1.35-2.745h2.275l-2.309 4.096 2.371 4.164h-2.297l-1.39-2.797-1.39 2.797h-2.292l2.365-4.164-2.303-4.096h2.269l1.35 2.745zM39.144 10.774v2.802h-1.991v-8.259h3.296c0.632 0 1.189 0.117 1.673 0.352 0.488 0.231 0.864 0.562 1.129 0.993 0.269 0.427 0.403 0.913 0.403 1.458 0 0.805-0.289 1.45-0.868 1.934-0.575 0.48-1.365 0.72-2.371 0.72h-1.271zM39.144 9.236h1.305c0.386 0 0.679-0.096 0.879-0.289 0.204-0.193 0.306-0.465 0.306-0.817 0-0.386-0.104-0.694-0.312-0.925s-0.492-0.348-0.851-0.352h-1.327v2.382zM46.864 12.044h3.466v1.532h-5.457v-8.259h1.991v6.728zM57.953 9.616c0 0.806-0.149 1.518-0.448 2.139s-0.724 1.099-1.277 1.435c-0.548 0.333-1.174 0.499-1.877 0.499s-1.328-0.161-1.872-0.482c-0.544-0.325-0.97-0.788-1.276-1.39-0.303-0.601-0.462-1.291-0.477-2.070v-0.465c0-0.809 0.147-1.522 0.442-2.139 0.299-0.62 0.724-1.099 1.277-1.435 0.556-0.337 1.187-0.505 1.894-0.505 0.7 0 1.324 0.166 1.872 0.499s0.974 0.807 1.277 1.424c0.306 0.613 0.461 1.316 0.465 2.11v0.38zM55.928 9.27c0-0.821-0.138-1.443-0.414-1.866-0.272-0.427-0.664-0.641-1.174-0.641-0.998 0-1.526 0.749-1.583 2.246l-0.006 0.607c0 0.809 0.134 1.431 0.403 1.866s0.668 0.652 1.197 0.652c0.503 0 0.891-0.214 1.163-0.641s0.41-1.042 0.414-1.844v-0.38zM62.202 10.66h-1.078v2.916h-1.991v-8.259h3.25c0.979 0 1.745 0.217 2.297 0.652s0.828 1.049 0.828 1.844c0 0.575-0.117 1.051-0.352 1.429-0.231 0.378-0.594 0.684-1.089 0.919l1.725 3.33v0.085h-2.133l-1.458-2.916zM61.124 9.123h1.26c0.378 0 0.662-0.098 0.851-0.295 0.193-0.2 0.289-0.478 0.289-0.834s-0.096-0.633-0.289-0.834c-0.193-0.204-0.477-0.306-0.851-0.306h-1.26v2.269zM71.986 10.076h-3.131v1.968h3.698v1.532h-5.689v-8.259h5.701v1.537h-3.71v1.741h3.131v1.481z"></path>
<path fill="#fff" style="fill: var(--color2, #fff)" d="M25.049 24.242h-1.985v-8.259h1.985v8.259zM33.483 24.242h-1.98l-2.927-5.139v5.139h-1.991v-8.259h1.991l2.921 5.139v-5.139h1.985v8.259zM34.895 24.242v-8.259h2.66c0.73 0 1.386 0.166 1.968 0.499 0.582 0.329 1.036 0.796 1.361 1.401 0.329 0.601 0.495 1.276 0.499 2.025v0.38c0 0.756-0.161 1.435-0.482 2.036-0.318 0.597-0.768 1.066-1.35 1.407-0.579 0.337-1.225 0.507-1.94 0.511h-2.717zM36.886 17.521v5.19h0.692c0.571 0 1.010-0.202 1.316-0.607 0.306-0.408 0.459-1.013 0.459-1.815v-0.357c0-0.798-0.153-1.399-0.459-1.804s-0.753-0.607-1.339-0.607h-0.669zM49.553 20.283c0 0.806-0.15 1.518-0.449 2.139s-0.724 1.099-1.276 1.435c-0.548 0.333-1.174 0.499-1.878 0.499s-1.327-0.161-1.872-0.482c-0.545-0.325-0.97-0.788-1.276-1.39-0.303-0.601-0.461-1.291-0.477-2.070v-0.465c0-0.809 0.148-1.522 0.442-2.139 0.299-0.62 0.724-1.099 1.276-1.435 0.556-0.337 1.187-0.505 1.895-0.505 0.7 0 1.324 0.166 1.872 0.499s0.974 0.807 1.276 1.424c0.306 0.613 0.462 1.316 0.465 2.11v0.38zM47.528 19.937c0-0.821-0.138-1.443-0.414-1.866-0.272-0.427-0.664-0.641-1.174-0.641-0.998 0-1.526 0.749-1.583 2.246l-0.006 0.607c0 0.809 0.134 1.431 0.403 1.866s0.667 0.652 1.197 0.652c0.503 0 0.891-0.214 1.163-0.641s0.41-1.042 0.414-1.844v-0.38zM57.63 24.242h-1.98l-2.927-5.139v5.139h-1.991v-8.259h1.991l2.921 5.139v-5.139h1.985v8.259zM64.164 20.742h-3.131v1.968h3.698v1.532h-5.689v-8.259h5.701v1.537h-3.71v1.741h3.131v1.481zM69.956 22.047c0-0.291-0.104-0.518-0.312-0.681-0.204-0.163-0.565-0.331-1.083-0.505s-0.942-0.342-1.271-0.505c-1.070-0.526-1.605-1.248-1.605-2.167 0-0.458 0.132-0.86 0.397-1.208 0.269-0.352 0.647-0.624 1.135-0.817 0.488-0.197 1.036-0.295 1.645-0.295 0.593 0 1.125 0.106 1.594 0.318 0.473 0.212 0.84 0.514 1.101 0.908 0.261 0.39 0.391 0.836 0.391 1.339h-1.985c0-0.337-0.104-0.597-0.312-0.783-0.204-0.185-0.482-0.278-0.834-0.278-0.355 0-0.637 0.079-0.845 0.238-0.204 0.155-0.306 0.354-0.306 0.596 0 0.212 0.113 0.405 0.34 0.579 0.227 0.17 0.626 0.348 1.197 0.533 0.571 0.182 1.040 0.378 1.407 0.59 0.893 0.514 1.339 1.223 1.339 2.127 0 0.722-0.272 1.29-0.817 1.702s-1.292 0.618-2.241 0.618c-0.669 0-1.276-0.119-1.821-0.357-0.541-0.242-0.949-0.571-1.225-0.987-0.272-0.42-0.409-0.902-0.409-1.447h1.997c0 0.442 0.113 0.77 0.34 0.981 0.23 0.208 0.603 0.312 1.117 0.312 0.329 0 0.588-0.070 0.777-0.21 0.193-0.144 0.289-0.344 0.289-0.601zM75.242 24.242h-1.985v-8.259h1.985v8.259zM81.572 22.7h-2.728l-0.477 1.543h-2.127l3.029-8.259h1.872l3.052 8.259h-2.138l-0.482-1.543zM79.321 21.162h1.775l-0.89-2.865-0.885 2.865z"></path>
</symbol>
<symbol id="num1" viewBox="0 0 32 32">
<path fill="#dd2242" style="fill: var(--color1, #dd2242)" d="M16 32c8.837 0 16-7.163 16-16s-7.163-16-16-16-16 7.163-16 16 7.163 16 16 16z"></path>
<path fill="#fff" style="fill: var(--color2, #fff)" d="M15.611 20.929v-8.753l-1.705 0.392v-1.177l2.339-1.026h1.026v10.563h-1.66z"></path>
</symbol>
<symbol id="num2" viewBox="0 0 32 32">
<path fill="#dd2242" style="fill: var(--color1, #dd2242)" d="M16 32c8.837 0 16-7.163 16-16s-7.163-16-16-16-16 7.163-16 16 7.163 16 16 16z"></path>
<path fill="#fff" style="fill: var(--color2, #fff)" d="M12.657 21.143v-1.147c0.747-0.594 1.386-1.132 2.009-1.687l-0.048 0.042c0.592-0.522 1.133-1.054 1.645-1.614l0.015-0.016c0.493-0.543 0.88-1.071 1.162-1.585 0.281-0.523 0.422-1.026 0.422-1.509 0-0.322-0.055-0.624-0.166-0.906-0.108-0.289-0.296-0.526-0.538-0.691l-0.005-0.003c-0.251-0.181-0.589-0.272-1.011-0.272-0.634 0-1.111 0.202-1.434 0.604-0.311 0.402-0.463 0.886-0.453 1.449h-1.554c0.010-0.745 0.166-1.368 0.468-1.871 0.301-0.49 0.721-0.881 1.22-1.139l0.017-0.008c0.523-0.261 1.112-0.392 1.766-0.392 0.996 0 1.791 0.282 2.385 0.845 0.603 0.553 0.905 1.328 0.905 2.324 0 0.593-0.146 1.182-0.438 1.766-0.319 0.644-0.691 1.199-1.125 1.7l0.008-0.010c-0.464 0.544-0.942 1.037-1.45 1.497l-0.013 0.012c-0.446 0.406-0.932 0.825-1.43 1.232l-0.065 0.051h4.829v1.328h-7.122z"></path>
</symbol>
<symbol id="num3" viewBox="0 0 32 32">
<path fill="#dd2242" style="fill: var(--color1, #dd2242)" d="M16 32c8.837 0 16-7.163 16-16s-7.163-16-16-16-16 7.163-16 16 7.163 16 16 16z"></path>
<path fill="#fff" style="fill: var(--color2, #fff)" d="M16.101 21.324c-0.684 0-1.307-0.121-1.871-0.362-0.551-0.25-1.002-0.637-1.321-1.12l-0.007-0.012c-0.331-0.503-0.508-1.132-0.528-1.887h1.585c0.020 0.563 0.211 1.042 0.574 1.434 0.372 0.382 0.895 0.573 1.569 0.573 0.644 0 1.137-0.176 1.479-0.529 0.342-0.362 0.513-0.81 0.513-1.343 0-0.644-0.231-1.122-0.694-1.434-0.453-0.312-1.011-0.468-1.675-0.468h-0.785v-1.328h0.8c0.593 0 1.071-0.141 1.433-0.422 0.373-0.282 0.559-0.679 0.559-1.192 0-0.433-0.146-0.785-0.438-1.057-0.282-0.271-0.685-0.407-1.207-0.407-0.543 0-0.971 0.161-1.283 0.483-0.312 0.312-0.483 0.704-0.513 1.177h-1.585c0.020-0.614 0.171-1.147 0.453-1.6 0.296-0.453 0.699-0.813 1.175-1.048l0.017-0.008c0.503-0.251 1.082-0.377 1.735-0.377 0.704 0 1.293 0.126 1.766 0.377 0.483 0.241 0.845 0.573 1.086 0.996 0.251 0.413 0.377 0.865 0.377 1.358 0 0.563-0.156 1.056-0.467 1.479s-0.73 0.704-1.253 0.845c0.604 0.126 1.118 0.444 1.49 0.886l0.003 0.004c0.393 0.453 0.589 1.041 0.589 1.766 0 0.008 0 0.018 0 0.028 0 0.582-0.151 1.129-0.416 1.603l0.009-0.017c-0.271 0.483-0.674 0.87-1.207 1.162s-1.187 0.438-1.962 0.438z"></path>
</symbol>
</defs>
</svg>
