<svg xmlns="http://www.w3.org/2000/svg" width="56" height="56" fill="none"><path fill="#DD2242" fill-rule="evenodd" d="M28 56c15.464 0 28-12.536 28-28S43.464 0 28 0 0 12.536 0 28s12.536 28 28 28Z" clip-rule="evenodd"/><path fill="#fff" d="M22.149 37v-2.007a82.193 82.193 0 0 0 3.433-2.879 37.394 37.394 0 0 0 2.905-2.852c.863-.95 1.54-1.875 2.034-2.773.492-.915.739-1.796.739-2.64 0-.564-.097-1.092-.29-1.585a2.506 2.506 0 0 0-.951-1.215c-.44-.317-1.03-.476-1.77-.476-1.109 0-1.945.353-2.509 1.057-.545.704-.81 1.55-.792 2.535h-2.72c.018-1.303.29-2.394.819-3.274a5.393 5.393 0 0 1 2.165-2.008c.916-.457 1.946-.686 3.09-.686 1.743 0 3.134.493 4.173 1.479 1.056.968 1.584 2.324 1.584 4.067 0 1.038-.255 2.068-.766 3.09a13.858 13.858 0 0 1-1.954 2.957 27.89 27.89 0 0 1-2.561 2.641 62.825 62.825 0 0 1-2.615 2.245h8.45V37H22.15Z"/></svg>