<svg xmlns="http://www.w3.org/2000/svg" width="56" height="56" fill="none"><path fill="#DD2242" fill-rule="evenodd" d="M28 56c15.464 0 28-12.536 28-28S43.464 0 28 0 0 12.536 0 28s12.536 28 28 28Z" clip-rule="evenodd"/><path fill="#fff" d="M28.176 37.317c-1.197 0-2.288-.211-3.274-.634a5.412 5.412 0 0 1-2.325-1.98c-.58-.88-.889-1.981-.924-3.302h2.773c.035.986.37 1.823 1.004 2.51.651.668 1.567 1.003 2.746 1.003 1.127 0 1.99-.308 2.588-.925.599-.633.898-1.417.898-2.35 0-1.127-.405-1.963-1.214-2.509-.793-.546-1.77-.819-2.932-.819h-1.373v-2.324h1.4c1.038 0 1.875-.246 2.508-.739.652-.493.978-1.189.978-2.086 0-.757-.256-1.374-.766-1.849-.493-.475-1.198-.713-2.113-.713-.95 0-1.7.282-2.245.845-.546.546-.845 1.232-.898 2.06h-2.773c.035-1.074.3-2.007.792-2.8a5.185 5.185 0 0 1 2.087-1.848c.88-.44 1.893-.66 3.037-.66 1.232 0 2.262.22 3.09.66.845.422 1.479 1.003 1.901 1.743.44.722.66 1.514.66 2.377 0 .986-.273 1.848-.818 2.588-.546.74-1.277 1.232-2.192 1.479a4.615 4.615 0 0 1 2.614 1.558c.687.792 1.03 1.822 1.03 3.09a5.76 5.76 0 0 1-.713 2.825c-.475.846-1.18 1.523-2.113 2.034-.933.51-2.077.766-3.433.766Z"/></svg>